<svg id="图层_1" data-name="图层 1" xmlns="http://www.w3.org/2000/svg" viewBox="0 0 136.54 121.94"><defs><style>.cls-1,.cls-10,.cls-2,.cls-4,.cls-5,.cls-6,.cls-7,.cls-8,.cls-9{font-size:12px;}.cls-1,.cls-10,.cls-2,.cls-3,.cls-4,.cls-5,.cls-6,.cls-7,.cls-8,.cls-9{fill:#231815;}.cls-1,.cls-2,.cls-3{font-family:TimesNewRomanPS-ItalicMT, Times New Roman;font-style:italic;}.cls-1{letter-spacing:0.74em;}.cls-3{font-size:6.94px;}.cls-10,.cls-4,.cls-5,.cls-6,.cls-7,.cls-8,.cls-9{font-family:TimesNewRomanPSMT, Times New Roman;}.cls-4{letter-spacing:0.54em;}.cls-6{letter-spacing:0.41em;}.cls-7{letter-spacing:0.45em;}.cls-8{letter-spacing:0.47em;}.cls-9{letter-spacing:0.25em;}.cls-10{letter-spacing:0.48em;}</style></defs><text class="cls-1" transform="translate(0.3 63.97)">Fx</text><text class="cls-2" transform="translate(73.92 10.16)">x</text><text class="cls-2" transform="translate(102.23 28.16)">x</text><text class="cls-2" transform="translate(102.42 46.16)">x</text><text class="cls-2" transform="translate(102.05 64.16)">x</text><text class="cls-3" transform="translate(6.67 67.06)">n</text><text class="cls-4" transform="translate(11.61 63.97)">()</text><text class="cls-5" transform="translate(50.11 10.16)">,</text><text class="cls-6" transform="translate(50.3 28.16)">.,</text><text class="cls-7" transform="translate(50.3 46.16)">.,</text><text class="cls-8" transform="translate(50.3 64.16)">.,</text><text class="cls-8" transform="translate(50.3 82.16)">.,</text><path d="M56.89,93.24H63v-.56H56.89Zm0,2.2H63v-.57H56.89Z" transform="translate(-27.82 -33.15)"/><polygon points="82.33 6.94 82.33 7.24 88.22 10.16 88.22 9.53 83.29 7.07 88.22 4.65 88.22 4 82.33 6.94"/><path d="M120.47,56.78v.29L126.36,60v-.63l-4.93-2.46,4.93-2.42v-.65Zm0,4.52h5.89v-.56h-5.89Zm18-3.21v.3l5.89,2.91v-.62l-4.93-2.46,4.93-2.42v-.65Z" transform="translate(-27.82 -33.15)"/><path d="M120.66,74.78v.29L126.55,78v-.63l-4.93-2.46,4.93-2.42v-.65Zm0,4.52h5.89v-.56h-5.89Zm18-3.21v.3l5.88,2.91v-.62l-4.92-2.46,4.92-2.42v-.65Z" transform="translate(-27.82 -33.15)"/><path d="M120.28,92.78v.29L126.17,96v-.63l-4.93-2.46,4.93-2.42v-.65Zm0,4.52h5.89v-.56h-5.89Zm18-3.21v.3l5.89,2.91v-.62l-4.93-2.46,4.93-2.42v-.65Z" transform="translate(-27.82 -33.15)"/><text class="cls-5" transform="translate(44.3 10.16)">0</text><text class="cls-5" transform="translate(90.05 10.16)">138</text><text class="cls-9" transform="translate(44.3 28.16)">01</text><text class="cls-5" transform="translate(72.05 28.16)">138</text><text class="cls-5" transform="translate(118.36 28.16)">149</text><text class="cls-9" transform="translate(44.3 46.16)">03</text><text class="cls-5" transform="translate(72.05 46.16)">149</text><text class="cls-5" transform="translate(118.55 46.16)">153</text><text class="cls-9" transform="translate(44.3 64.16)">05</text><text class="cls-5" transform="translate(72.05 64.16)">153</text><text class="cls-5" transform="translate(118.17 64.16)">156</text><text class="cls-9" transform="translate(44.3 82.16)">08</text><text class="cls-5" transform="translate(72.05 82.16)">156</text><text class="cls-5" transform="translate(84.05 82.16)">6</text><text class="cls-5" transform="translate(118.55 82.16)">160</text><text class="cls-9" transform="translate(44.3 100.16)">09</text><text class="cls-5" transform="translate(72.05 100.16)">160</text><text class="cls-5" transform="translate(118.55 100.16)">169</text><text class="cls-5" transform="translate(43.17 118.16)">1</text><text class="cls-5" transform="translate(90.05 118.16)">169</text><path d="M120.66,110.78v.29l5.89,2.93v-.63l-4.93-2.46,4.93-2.42v-.65Zm0,4.52h5.89v-.56h-5.89Zm18-3.21v.3l5.88,2.91v-.62l-4.92-2.46,4.92-2.42v-.65Z" transform="translate(-27.82 -33.15)"/><path d="M120.66,128.78v.29l5.89,2.93v-.63l-4.93-2.46,4.93-2.42v-.65Zm0,4.52h5.89v-.56h-5.89Zm18-3.21v.3l5.88,2.91v-.62l-4.92-2.46,4.92-2.42v-.65Z" transform="translate(-27.82 -33.15)"/><path d="M116.05,147.06v-.3l-5.89-2.92v.63l4.93,2.44-4.93,2.45V150Zm-5.89,4.24h5.89v-.56h-5.89Z" transform="translate(-27.82 -33.15)"/><path d="M71.37,33.15a3.32,3.32,0,0,0-2.17,1,3.55,3.55,0,0,0-.69,2.4v8.69h.56V37.13a7.09,7.09,0,0,1,.19-2A2.27,2.27,0,0,1,70,34.08a3.16,3.16,0,0,1,1.4-.67Z" transform="translate(-27.82 -33.15)"/><path d="M69.07,97.55a6.43,6.43,0,0,0-.14-1.42,2.68,2.68,0,0,0-.45-1,2.14,2.14,0,0,0-.78-.64,5.15,5.15,0,0,0-1.23-.42,5.27,5.27,0,0,0,1.2-.39,2.38,2.38,0,0,0,.74-.59,2.59,2.59,0,0,0,.48-1,5.38,5.38,0,0,0,.18-1.47V88.07h-.56v2.46A3.91,3.91,0,0,1,68,92.81a3.17,3.17,0,0,1-1.78,1.07v.44A3.16,3.16,0,0,1,68,95.38a4,4,0,0,1,.53,2.3v2.47h.56Z" transform="translate(-27.82 -33.15)"/><rect x="40.68" y="11.49" width="0.58" height="12.08"/><rect x="40.68" y="22.99" width="0.58" height="12.08"/><rect x="40.68" y="34.49" width="0.58" height="12.08"/><rect x="40.68" y="45.93" width="0.58" height="12.08"/><path d="M70.26,154.37a2.39,2.39,0,0,1-.73-.72,2.6,2.6,0,0,1-.36-1.05,10.48,10.48,0,0,1-.1-1.49V143h-.56v8.69a3.51,3.51,0,0,0,.69,2.4,3.38,3.38,0,0,0,2.17,1v-.27a3.27,3.27,0,0,1-1.11-.45Z" transform="translate(-27.82 -33.15)"/><rect x="40.68" y="66.43" width="0.58" height="12.08"/><rect x="40.68" y="77.93" width="0.58" height="12.08"/><rect x="40.68" y="89.43" width="0.58" height="12.08"/><rect x="40.68" y="100.93" width="0.58" height="12.08"/><text class="cls-2" transform="translate(102.42 82.16)">x</text><text class="cls-2" transform="translate(102.42 100.16)">x</text><text class="cls-2" transform="translate(73.92 118.16)">x</text><text class="cls-10" transform="translate(50.3 100.16)">.,</text><text class="cls-5" transform="translate(48.05 118.16)">,</text></svg>