<svg id="图层_1" data-name="图层 1" xmlns="http://www.w3.org/2000/svg" xmlns:xlink="http://www.w3.org/1999/xlink" viewBox="0 0 166.85 139.75"><defs><style>.cls-1,.cls-30,.cls-32,.cls-6{fill:none;}.cls-1{clip-rule:evenodd;}.cls-2,.cls-24,.cls-26,.cls-4,.cls-8{fill:#040000;}.cls-2{fill-rule:evenodd;}.cls-3{clip-path:url(#clip-path);}.cls-26,.cls-4{font-size:7.94px;}.cls-24,.cls-4{font-family:TimesNewRomanPS-ItalicMT, Times New Roman;font-style:italic;}.cls-5{clip-path:url(#clip-path-2);}.cls-6{stroke:#040000;stroke-width:0.75px;}.cls-30,.cls-31,.cls-32,.cls-6{stroke-miterlimit:10;}.cls-7{clip-path:url(#clip-path-3);}.cls-8{font-size:6.62px;}.cls-26,.cls-8{font-family:TimesNewRomanPSMT, Times New Roman;}.cls-9{letter-spacing:0em;}.cls-10{clip-path:url(#clip-path-4);}.cls-11{clip-path:url(#clip-path-5);}.cls-12{clip-path:url(#clip-path-6);}.cls-13{clip-path:url(#clip-path-7);}.cls-14{clip-path:url(#clip-path-8);}.cls-15{clip-path:url(#clip-path-9);}.cls-16{letter-spacing:0em;}.cls-17{clip-path:url(#clip-path-10);}.cls-18{clip-path:url(#clip-path-11);}.cls-19{clip-path:url(#clip-path-12);}.cls-20{clip-path:url(#clip-path-13);}.cls-21{clip-path:url(#clip-path-14);}.cls-22{clip-path:url(#clip-path-15);}.cls-23{clip-path:url(#clip-path-16);}.cls-24{font-size:5.08px;}.cls-25{clip-path:url(#clip-path-17);}.cls-27{clip-path:url(#clip-path-18);}.cls-28{clip-path:url(#clip-path-19);}.cls-29{clip-path:url(#clip-path-20);}.cls-30,.cls-31,.cls-32{stroke:#000;}.cls-30,.cls-31{stroke-width:0.25px;}</style><clipPath id="clip-path" transform="translate(-17.13 -20.08)"><polygon class="cls-1" points="180.46 142.69 191.11 142.69 191.11 153.6 180.46 153.6 180.46 142.69 180.46 142.69"/></clipPath><clipPath id="clip-path-2" transform="translate(-17.13 -20.08)"><polygon class="cls-1" points="39.46 19.59 50.11 19.59 50.11 30.5 39.46 30.5 39.46 19.59 39.46 19.59"/></clipPath><clipPath id="clip-path-3" transform="translate(-17.13 -20.08)"><polygon class="cls-1" points="153.3 144.34 169.24 144.34 169.24 153.44 153.3 153.44 153.3 144.34 153.3 144.34"/></clipPath><clipPath id="clip-path-4" transform="translate(-17.13 -20.08)"><polygon class="cls-1" points="125.19 144.34 141.12 144.34 141.12 153.44 125.19 153.44 125.19 144.34 125.19 144.34"/></clipPath><clipPath id="clip-path-5" transform="translate(-17.13 -20.08)"><polygon class="cls-1" points="108.98 144.34 124.92 144.34 124.92 153.44 108.98 153.44 108.98 144.34 108.98 144.34"/></clipPath><clipPath id="clip-path-6" transform="translate(-17.13 -20.08)"><polygon class="cls-1" points="97.07 144.34 113.01 144.34 113.01 153.44 97.07 153.44 97.07 144.34 97.07 144.34"/></clipPath><clipPath id="clip-path-7" transform="translate(-17.13 -20.08)"><polygon class="cls-1" points="84.84 144.34 100.78 144.34 100.78 153.44 84.84 153.44 84.84 144.34 84.84 144.34"/></clipPath><clipPath id="clip-path-8" transform="translate(-17.13 -20.08)"><polygon class="cls-1" points="54.02 144.34 69.96 144.34 69.96 153.44 54.02 153.44 54.02 144.34 54.02 144.34"/></clipPath><clipPath id="clip-path-9" transform="translate(-17.13 -20.08)"><polygon class="cls-1" points="26.6 46.75 40.84 46.75 40.84 55.86 26.6 55.86 26.6 46.75 26.6 46.75"/></clipPath><clipPath id="clip-path-10" transform="translate(-17.13 -20.08)"><polygon class="cls-1" points="26.6 56.02 40.84 56.02 40.84 65.13 26.6 65.13 26.6 56.02 26.6 56.02"/></clipPath><clipPath id="clip-path-11" transform="translate(-17.13 -20.08)"><polygon class="cls-1" points="26.6 64.91 40.84 64.91 40.84 74.02 26.6 74.02 26.6 64.91 26.6 64.91"/></clipPath><clipPath id="clip-path-12" transform="translate(-17.13 -20.08)"><polygon class="cls-1" points="26.6 93.4 40.84 93.4 40.84 102.51 26.6 102.51 26.6 93.4 26.6 93.4"/></clipPath><clipPath id="clip-path-13" transform="translate(-17.13 -20.08)"><polygon class="cls-1" points="26.6 111.61 40.84 111.61 40.84 120.72 26.6 120.72 26.6 111.61 26.6 111.61"/></clipPath><clipPath id="clip-path-14" transform="translate(-17.13 -20.08)"><polygon class="cls-1" points="26.6 130.78 40.84 130.78 40.84 139.89 26.6 139.89 26.6 130.78 26.6 130.78"/></clipPath><clipPath id="clip-path-15" transform="translate(-17.13 -20.08)"><polygon class="cls-1" points="17.33 26.9 29.3 26.9 29.3 37.8 17.33 37.8 17.33 26.9 17.33 26.9"/></clipPath><clipPath id="clip-path-16" transform="translate(-17.13 -20.08)"><polygon class="cls-1" points="22.2 30.44 29.3 30.44 29.3 37.43 22.2 37.43 22.2 30.44 22.2 30.44"/></clipPath><clipPath id="clip-path-17" transform="translate(-17.13 -20.08)"><polygon class="cls-1" points="24.74 26.9 34.49 26.9 34.49 37.8 24.74 37.8 24.74 26.9 24.74 26.9"/></clipPath><clipPath id="clip-path-18" transform="translate(-17.13 -20.08)"><polygon class="cls-1" points="27.39 26.9 38.03 26.9 38.03 37.8 27.39 37.8 27.39 26.9 27.39 26.9"/></clipPath><clipPath id="clip-path-19" transform="translate(-17.13 -20.08)"><polygon class="cls-1" points="30.94 26.9 40.68 26.9 40.68 37.8 30.94 37.8 30.94 26.9 30.94 26.9"/></clipPath><clipPath id="clip-path-20" transform="translate(-17.13 -20.08)"><polygon class="cls-1" points="29.56 144.02 42.38 144.02 42.38 154.93 29.56 154.93 29.56 144.02 29.56 144.02"/></clipPath></defs><polyline class="cls-2" points="164.28 122.59 160.35 121.31 161.92 122.59 160.35 123.86 164.28 122.59"/><g class="cls-3"><text class="cls-4" transform="translate(163.33 129.71)">x</text></g><polyline class="cls-2" points="19.7 6.49 18.42 10.41 19.7 8.84 20.97 10.41 19.7 6.49"/><g class="cls-5"><text class="cls-4" transform="translate(22.33 6.6)">y</text></g><line class="cls-6" x1="43.91" y1="122.59" x2="164.28" y2="122.59"/><line class="cls-6" x1="19.7" y1="122.59" x2="40.5" y2="122.59"/><line class="cls-6" x1="1.3" y1="122.59" x2="19.7" y2="122.59"/><line class="cls-6" x1="19.7" y1="122.59" x2="19.7" y2="6.48"/><line class="cls-6" x1="19.7" y1="122.59" x2="19.7" y2="139.75"/><g class="cls-7"><text class="cls-8" transform="translate(136.17 130.19)"><tspan class="cls-9">16</tspan><tspan x="6.66" y="0">9</tspan></text></g><g class="cls-10"><text class="cls-8" transform="translate(108.05 130.19)"><tspan class="cls-9">16</tspan><tspan x="6.66" y="0">0</tspan></text></g><g class="cls-11"><text class="cls-8" transform="translate(91.85 130.19)"><tspan class="cls-9">15</tspan><tspan x="6.66" y="0">6</tspan></text></g><g class="cls-12"><text class="cls-8" transform="translate(79.94 130.19)"><tspan class="cls-9">15</tspan><tspan x="6.66" y="0">3</tspan></text></g><g class="cls-13"><text class="cls-8" transform="translate(67.71 130.19)"><tspan class="cls-9">14</tspan><tspan x="6.66" y="0">9</tspan></text></g><g class="cls-14"><text class="cls-8" transform="translate(36.89 130.19)"><tspan class="cls-9">13</tspan><tspan x="6.66" y="0">8</tspan></text></g><g class="cls-15"><text class="cls-8" transform="translate(9.46 32.6)"><tspan class="cls-9">1</tspan><tspan class="cls-16" x="3.33" y="0">.</tspan><tspan x="4.98" y="0">0</tspan></text></g><g class="cls-17"><text class="cls-8" transform="translate(9.46 41.86)"><tspan class="cls-9">0</tspan><tspan class="cls-16" x="3.33" y="0">.</tspan><tspan x="4.98" y="0">9</tspan></text></g><g class="cls-18"><text class="cls-8" transform="translate(9.46 50.76)"><tspan class="cls-9">0</tspan><tspan class="cls-16" x="3.33" y="0">.</tspan><tspan x="4.98" y="0">8</tspan></text></g><g class="cls-19"><text class="cls-8" transform="translate(9.46 79.25)"><tspan class="cls-9">0</tspan><tspan class="cls-16" x="3.33" y="0">.</tspan><tspan x="4.98" y="0">5</tspan></text></g><g class="cls-20"><text class="cls-8" transform="translate(9.46 97.46)"><tspan class="cls-9">0</tspan><tspan class="cls-16" x="3.33" y="0">.</tspan><tspan x="4.98" y="0">3</tspan></text></g><g class="cls-21"><text class="cls-8" transform="translate(9.46 116.63)"><tspan class="cls-9">0</tspan><tspan class="cls-16" x="3.33" y="0">.</tspan><tspan x="4.98" y="0">1</tspan></text></g><g class="cls-22"><text class="cls-4" transform="translate(0.2 13.91)">F</text></g><g class="cls-23"><text class="cls-24" transform="translate(5.07 14.92)">n</text></g><g class="cls-25"><text class="cls-26" transform="translate(7.61 13.91)">(</text></g><g class="cls-27"><text class="cls-4" transform="translate(10.25 13.91)">x</text></g><g class="cls-28"><text class="cls-26" transform="translate(13.8 13.91)">)</text></g><path class="cls-2" d="M36.33,142.67a.5.5,0,0,1,.5-.5.5.5,0,1,1,0,1,.49.49,0,0,1-.5-.49Z" transform="translate(-17.13 -20.08)"/><g class="cls-29"><text class="cls-4" transform="translate(12.43 131.03)">O</text></g><path class="cls-30" d="M59.34,141a1.71,1.71,0,1,0,1.7,1.71A1.71,1.71,0,0,0,59.34,141Z" transform="translate(-17.13 -20.08)"/><path class="cls-30" d="M90.8,132.71a1.71,1.71,0,1,0,1.71,1.7A1.7,1.7,0,0,0,90.8,132.71Z" transform="translate(-17.13 -20.08)"/><path class="cls-31" d="M59.34,132.71a1.71,1.71,0,1,0,1.7,1.7A1.7,1.7,0,0,0,59.34,132.71Z" transform="translate(-17.13 -20.08)"/><line class="cls-32" x1="43.25" y1="114.33" x2="71.96" y2="114.33"/><path class="cls-30" d="M103,113.67a1.71,1.71,0,1,0,1.7,1.71A1.7,1.7,0,0,0,103,113.67Z" transform="translate(-17.13 -20.08)"/><path class="cls-31" d="M90.6,113.77a1.71,1.71,0,1,0,1.7,1.71A1.71,1.71,0,0,0,90.6,113.77Z" transform="translate(-17.13 -20.08)"/><line class="cls-32" x1="74.51" y1="95.3" x2="84.13" y2="95.3"/><path class="cls-30" d="M114.92,95.62a1.71,1.71,0,1,0,1.71,1.71A1.7,1.7,0,0,0,114.92,95.62Z" transform="translate(-17.13 -20.08)"/><path class="cls-31" d="M103,95.72a1.71,1.71,0,1,0,1.71,1.71A1.71,1.71,0,0,0,103,95.72Z" transform="translate(-17.13 -20.08)"/><line class="cls-32" x1="86.88" y1="77.25" x2="96.08" y2="77.25"/><path class="cls-30" d="M130.29,66.88a1.71,1.71,0,1,0,1.7,1.71A1.71,1.71,0,0,0,130.29,66.88Z" transform="translate(-17.13 -20.08)"/><path class="cls-31" d="M114.92,67a1.71,1.71,0,1,0,1.71,1.71A1.71,1.71,0,0,0,114.92,67Z" transform="translate(-17.13 -20.08)"/><line class="cls-32" x1="98.84" y1="48.51" x2="111.45" y2="48.51"/><path class="cls-30" d="M158.9,57.71a1.71,1.71,0,1,0,1.71,1.7A1.7,1.7,0,0,0,158.9,57.71Z" transform="translate(-17.13 -20.08)"/><path class="cls-31" d="M130.37,57.81a1.71,1.71,0,1,0,1.7,1.71A1.71,1.71,0,0,0,130.37,57.81Z" transform="translate(-17.13 -20.08)"/><line class="cls-32" x1="114.28" y1="39.34" x2="140.07" y2="39.34"/><path class="cls-31" d="M158.9,48.94a1.71,1.71,0,1,0,1.71,1.71A1.71,1.71,0,0,0,158.9,48.94Z" transform="translate(-17.13 -20.08)"/><line class="cls-32" x1="142.82" y1="30.47" x2="162.31" y2="30.47"/></svg>