<svg id="图层_1" data-name="图层 1" xmlns="http://www.w3.org/2000/svg" viewBox="0 0 313.58 208.87"><defs><style>.cls-1,.cls-10,.cls-11,.cls-12,.cls-13,.cls-14,.cls-15,.cls-2,.cls-4,.cls-5,.cls-6,.cls-7,.cls-8,.cls-9{font-size:24.11px;}.cls-1,.cls-10,.cls-11,.cls-12,.cls-13,.cls-14,.cls-15,.cls-2,.cls-3,.cls-4,.cls-5,.cls-6,.cls-7,.cls-8,.cls-9{fill:#231815;}.cls-1,.cls-2,.cls-3{font-family:TimesNewRomanPS-ItalicMT, Times New Roman;font-style:italic;}.cls-1{letter-spacing:0.74em;}.cls-3{font-size:13.94px;}.cls-10,.cls-11,.cls-12,.cls-13,.cls-14,.cls-15,.cls-4,.cls-5,.cls-6,.cls-7,.cls-8,.cls-9{font-family:TimesNewRomanPSMT, Times New Roman;}.cls-4{letter-spacing:0.54em;}.cls-6{letter-spacing:0.97em;}.cls-7{letter-spacing:0.48em;}.cls-8{letter-spacing:3.88em;}.cls-9{letter-spacing:0.25em;}.cls-10{letter-spacing:1.13em;}.cls-11{letter-spacing:2.47em;}.cls-12{letter-spacing:1.16em;}.cls-13{letter-spacing:2.44em;}.cls-14{letter-spacing:2.45em;}.cls-15{letter-spacing:3.98em;}</style></defs><text class="cls-1" transform="translate(0.59 110.46)">Fx</text><text class="cls-2" transform="translate(160.21 20.42)">x</text><text class="cls-2" transform="translate(206.95 56.58)">x</text><text class="cls-2" transform="translate(207.7 92.75)">x</text><text class="cls-2" transform="translate(206.95 128.92)">x</text><text class="cls-2" transform="translate(207.31 165.1)">x</text><text class="cls-3" transform="translate(13.39 116.68)">n</text><text class="cls-4" transform="translate(23.31 110.46)">()</text><text class="cls-5" transform="translate(100.68 20.42)">,</text><text class="cls-6" transform="translate(101.07 56.58)">.,</text><text class="cls-6" transform="translate(101.07 92.75)">.,</text><text class="cls-6" transform="translate(101.07 128.92)">.,</text><text class="cls-7" transform="translate(101.07 165.1)">.,</text><path d="M173,244.15h12.37V243H173Zm0,4.41h12.37v-1.13H173Z" transform="translate(-114.6 -141.47)"/><polygon points="177.12 13.95 177.12 14.55 188.96 20.41 188.96 19.16 179.05 14.22 188.96 9.35 188.96 8.05 177.12 13.95"/><path d="M302.3,189v.57l11.84,5.88v-1.25l-9.91-4.94,9.91-4.87v-1.3Zm0,9.08h11.84v-1.13H302.3Zm36.15-6.46v.61l11.83,5.85V196.8l-9.9-4.94,9.9-4.87v-1.3Z" transform="translate(-114.6 -141.47)"/><path d="M303.05,225.14v.58l11.84,5.88v-1.26L305,225.4l9.91-4.87v-1.3Zm0,9.08h11.84v-1.13H303.05Zm36.15-6.46v.61L351,234.22V233L341.13,228l9.91-4.87v-1.3Z" transform="translate(-114.6 -141.47)"/><path d="M302.3,261.31v.58l11.84,5.88v-1.25l-9.91-4.95,9.91-4.86V255.4Zm0,9.09h11.84v-1.14H302.3Zm36.15-6.46v.6l11.83,5.86v-1.26l-9.9-4.94,9.9-4.87V258Z" transform="translate(-114.6 -141.47)"/><path d="M302.68,297.48v.58l11.83,5.88v-1.25l-9.9-4.94,9.9-4.87v-1.3Zm0,9.09h11.83v-1.13H302.68Zm36.15-6.46v.6l11.83,5.86v-1.26l-9.91-4.94,9.91-4.86V294.2Z" transform="translate(-114.6 -141.47)"/><text class="cls-8" transform="translate(89.01 20.42)">03</text><text class="cls-5" transform="translate(206.57 20.42)">8</text><text class="cls-9" transform="translate(89.01 56.58)">01</text><text class="cls-10" transform="translate(119.16 56.58)">53</text><text class="cls-11" transform="translate(170.39 56.58)">84</text><text class="cls-5" transform="translate(254.05 56.58)">8</text><text class="cls-9" transform="translate(89.01 92.75)">03</text><text class="cls-12" transform="translate(119.16 92.75)">54</text><text class="cls-13" transform="translate(171.16 92.75)">85</text><text class="cls-5" transform="translate(254.05 92.75)">8</text><text class="cls-9" transform="translate(89.01 128.92)">07</text><text class="cls-10" transform="translate(119.16 128.92)">55</text><text class="cls-14" transform="translate(170.39 128.92)">86</text><text class="cls-5" transform="translate(253.67 128.92)">8</text><text class="cls-9" transform="translate(89.01 165.1)">09</text><text class="cls-5" transform="translate(158.72 165.1)">68</text><text class="cls-5" transform="translate(241.98 165.1)">78</text><text class="cls-5" transform="translate(254.05 165.1)">8</text><text class="cls-15" transform="translate(86.74 201.29)">17</text><text class="cls-5" transform="translate(206.95 201.29)">8</text><text class="cls-5" transform="translate(96.55 201.29)">,</text><text class="cls-2" transform="translate(160.21 201.29)">x</text><path d="M303.58,334.21v-.6l-11.83-5.86V329l9.91,4.92-9.91,4.92v1.27Zm-11.83,8.53h11.83v-1.13H291.75Z" transform="translate(-114.6 -141.47)"/><path d="M202.13,141.47a6.69,6.69,0,0,0-4.36,2,7.13,7.13,0,0,0-1.4,4.82v17.47h1.13V149.47a13.79,13.79,0,0,1,.39-4,4.62,4.62,0,0,1,1.42-2.15,6.3,6.3,0,0,1,2.82-1.35Z" transform="translate(-114.6 -141.47)"/><path d="M197.5,252.8a11.6,11.6,0,0,0-.29-2.84,5.37,5.37,0,0,0-.89-2,4.65,4.65,0,0,0-1.56-1.28,10.44,10.44,0,0,0-2.49-.84,9.39,9.39,0,0,0,2.41-.8,4.82,4.82,0,0,0,1.5-1.18,5,5,0,0,0,1-2,10.85,10.85,0,0,0,.36-3v-5.16h-1.13v4.94a7.85,7.85,0,0,1-1.06,4.58,6.28,6.28,0,0,1-3.57,2.14v.9a6.21,6.21,0,0,1,3.57,2.12,8,8,0,0,1,1.06,4.63v5h1.13Z" transform="translate(-114.6 -141.47)"/><rect x="81.74" y="23.09" width="1.16" height="24.27"/><rect x="81.74" y="46.2" width="1.16" height="24.27"/><rect x="81.74" y="69.31" width="1.16" height="24.27"/><path d="M199.89,348.9a4.63,4.63,0,0,1-1.47-1.45,5.1,5.1,0,0,1-.72-2.1,21.2,21.2,0,0,1-.2-3V326.07h-1.13v17.48a7.11,7.11,0,0,0,1.4,4.82,6.63,6.63,0,0,0,4.36,2v-.53a6.67,6.67,0,0,1-2.24-.91Z" transform="translate(-114.6 -141.47)"/><rect x="81.74" y="115.4" width="1.16" height="24.27"/><rect x="81.74" y="138.51" width="1.16" height="24.27"/><rect x="81.74" y="161.62" width="1.16" height="24.27"/></svg>