<svg id="图层_1" data-name="图层 1" xmlns="http://www.w3.org/2000/svg" viewBox="0 0 315.94 217.25"><defs><style>.cls-1,.cls-2,.cls-4{fill:none;stroke-miterlimit:10;}.cls-1{stroke:#147c3b;}.cls-1,.cls-2{stroke-width:2.25px;}.cls-2{stroke:#1e2c5b;}.cls-3{fill:#e71f19;fill-rule:evenodd;}.cls-4{stroke:#040000;stroke-width:0.94px;}</style></defs><path class="cls-1" d="M255.75,212a100.91,100.91,0,1,1,100.9,100.91A100.49,100.49,0,0,1,255.75,212Z" transform="translate(-200.93 -109.94)"/><line class="cls-2" x1="3.47" y1="213.78" x2="312.47" y2="21.78"/><path class="cls-3" d="M353.65,212a3,3,0,1,1,3,3,3,3,0,0,1-3-3Z" transform="translate(-200.93 -109.94)"/><path class="cls-4" d="M353.65,212a3,3,0,1,1,3,3,3,3,0,0,1-3-3Z" transform="translate(-200.93 -109.94)"/><path class="cls-3" d="M454.15,221a3,3,0,1,1,3,3,3,3,0,0,1-3-3Z" transform="translate(-200.93 -109.94)"/><path class="cls-4" d="M454.15,221a3,3,0,1,1,3,3,3,3,0,0,1-3-3Z" transform="translate(-200.93 -109.94)"/><path class="cls-3" d="M201.4,323.71a3,3,0,1,1,3,3,3,3,0,0,1-3-3Z" transform="translate(-200.93 -109.94)"/><path class="cls-4" d="M201.4,323.71a3,3,0,1,1,3,3,3,3,0,0,1-3-3Z" transform="translate(-200.93 -109.94)"/><path class="cls-3" d="M510.4,131.71a3,3,0,1,1,3,3,3,3,0,0,1-3-3Z" transform="translate(-200.93 -109.94)"/><path class="cls-4" d="M510.4,131.71a3,3,0,1,1,3,3,3,3,0,0,1-3-3Z" transform="translate(-200.93 -109.94)"/></svg>